<svg width="95" height="17" viewBox="0 0 95 17" fill="none" xmlns="http://www.w3.org/2000/svg">
<path d="M8.71655 0L11.0221 5.40551L17.0065 5.87336L12.447 9.68199L13.84 15.3766L8.71655 12.325L3.59309 15.3766L4.98608 9.68199L0.426619 5.87336L6.41099 5.40551L8.71655 0Z" fill="#FFD000"/>
<path d="M27.2651 0L29.5707 5.40551L35.5551 5.87336L30.9956 9.68199L32.3886 15.3766L27.2651 12.325L22.1417 15.3766L23.5347 9.68199L18.9752 5.87336L24.9596 5.40551L27.2651 0Z" fill="#FFD000"/>
<path d="M47.5 0L49.8056 5.40551L55.7899 5.87336L51.2305 9.68199L52.6235 15.3766L47.5 12.325L42.3765 15.3766L43.7695 9.68199L39.2101 5.87336L45.1944 5.40551L47.5 0Z" fill="#FFD000"/>
<path d="M66.0486 0L68.3541 5.40551L74.3385 5.87336L69.779 9.68199L71.172 15.3766L66.0486 12.325L60.9251 15.3766L62.3181 9.68199L57.7586 5.87336L63.743 5.40551L66.0486 0Z" fill="#FFD000"/>
<path d="M86.2834 0L88.589 5.40551L94.5734 5.87336L90.0139 9.68199L91.4069 15.3766L86.2834 12.325L81.16 15.3766L82.553 9.68199L77.9935 5.87336L83.9779 5.40551L86.2834 0Z" fill="#FFD000"/>
</svg>
