<svg width="50" height="50" viewBox="0 0 50 50" fill="none" xmlns="http://www.w3.org/2000/svg">
<circle cx="25" cy="25" r="25" fill="#FFAD5E"/>
<path d="M38 15.6103H23.8334" stroke="white" stroke-width="2" stroke-miterlimit="10" stroke-linecap="round" stroke-linejoin="round"/>
<path d="M16.1667 15.6103H12" stroke="white" stroke-width="2" stroke-miterlimit="10" stroke-linecap="round" stroke-linejoin="round"/>
<path d="M19.9597 19.2191C21.9544 19.2169 23.5696 17.5999 23.5674 15.6075C23.5652 13.615 21.9464 12.0016 19.9518 12.0038C17.9571 12.006 16.3419 13.623 16.3441 15.6154C16.3462 17.6079 17.965 19.2213 19.9597 19.2191Z" stroke="white" stroke-width="2" stroke-miterlimit="10" stroke-linecap="round" stroke-linejoin="round"/>
<path d="M12 25.0014H26.1667" stroke="white" stroke-width="2" stroke-miterlimit="10" stroke-linecap="round" stroke-linejoin="round"/>
<path d="M33.8334 25.0014H38" stroke="white" stroke-width="2" stroke-miterlimit="10" stroke-linecap="round" stroke-linejoin="round"/>
<path d="M29.9859 28.6107C31.9806 28.6085 33.5958 26.9915 33.5936 24.9991C33.5914 23.0067 31.9727 21.3932 29.978 21.3954C27.9833 21.3976 26.3681 23.0146 26.3703 25.007C26.3725 26.9995 27.9913 28.6129 29.9859 28.6107Z" stroke="white" stroke-width="2" stroke-miterlimit="10" stroke-linecap="round" stroke-linejoin="round"/>
<path d="M38 34.3926H23.8334" stroke="white" stroke-width="2" stroke-miterlimit="10" stroke-linecap="round" stroke-linejoin="round"/>
<path d="M16.1667 34.3926H12" stroke="white" stroke-width="2" stroke-miterlimit="10" stroke-linecap="round" stroke-linejoin="round"/>
<path d="M19.9867 37.9999C21.9813 37.9999 23.5983 36.3847 23.5983 34.3923C23.5983 32.3999 21.9813 30.7847 19.9867 30.7847C17.992 30.7847 16.375 32.3999 16.375 34.3923C16.375 36.3847 17.992 37.9999 19.9867 37.9999Z" stroke="white" stroke-width="2" stroke-miterlimit="10" stroke-linecap="round" stroke-linejoin="round"/>
</svg>
