<svg width="33" height="35" viewBox="0 0 33 35" fill="none" xmlns="http://www.w3.org/2000/svg">
<path d="M23.7699 35C21.5136 35 19.3098 34.1657 17.6307 32.4972L10.337 25.5102C8.92028 24.1546 8.02825 22.3296 7.87084 20.5047C7.81837 20.1397 7.81837 19.7747 7.87084 19.4097C8.08073 14.9777 11.8587 11.3799 16.3189 11.3799H16.3713C20.9889 11.432 24.7669 15.1862 24.7669 19.7747V19.8268C24.7669 21.9646 23.9273 23.9981 22.3532 25.4581L20.3068 27.4395C19.782 27.9609 18.9425 27.9088 18.4178 27.3873C17.893 26.8659 17.9455 26.0317 18.4702 25.5102L20.5166 23.5289C21.5136 22.5382 22.0908 21.2346 22.0908 19.8268V19.7747C22.0908 16.594 19.5197 14.0391 16.3189 13.987H16.2664C13.1705 13.987 10.5469 16.4376 10.442 19.514C10.442 19.7747 10.442 20.0354 10.442 20.2961C10.5469 21.4953 11.1241 22.6946 12.1211 23.6331L19.4147 30.6201C21.1988 32.3408 23.7175 32.8101 26.0787 31.9237C28.335 31.0372 29.7518 29.108 29.9092 26.7616C29.9092 26.6052 29.9092 26.4488 29.9092 26.2924V14.9255C29.9092 14.0912 29.5419 13.3091 28.9122 12.7356L18.2079 3.35009C17.106 2.3594 15.4268 2.3594 14.3249 3.35009L3.62059 12.7356C2.99092 13.3091 2.62361 14.0912 2.62361 14.9255V26.3445C2.62361 26.5009 2.62361 26.6574 2.62361 26.8138C2.72856 28.8473 3.83047 30.568 5.61453 31.5587C7.50353 32.6015 9.81231 32.6536 11.6488 31.6629C11.8587 31.5587 12.0686 31.4544 12.226 31.298C12.7508 30.933 13.4854 31.0372 13.9051 31.4544C14.4823 32.0279 14.3774 32.9665 13.7477 33.4358C13.4854 33.6443 13.1705 33.8007 12.8557 33.9572C10.2321 35.365 6.92634 35.2607 4.30272 33.8007C1.78406 32.3929 0.209889 29.8901 0 26.9181C0 26.7095 0 26.5009 0 26.3445V14.9255C0 13.3091 0.682139 11.797 1.889 10.7542L12.5933 1.36872C14.6922 -0.456238 17.8406 -0.456238 19.9395 1.36872L30.6438 10.7542C31.8507 11.797 32.5328 13.3091 32.5328 14.9255V26.3445C32.5328 26.5531 32.5328 26.7616 32.5328 26.9181C32.3229 30.2551 30.224 33.1229 27.0232 34.3743C25.9738 34.7914 24.8718 35 23.7699 35Z" fill="#FFAD5E"/>
</svg>
