<svg width="19" height="19" viewBox="0 0 19 19" fill="none" xmlns="http://www.w3.org/2000/svg">
<path d="M7.43772 14.9286C3.38078 14.9286 0 11.5357 0 7.46429C0 3.39286 3.38078 0 7.43772 0C11.4947 0 14.8754 3.39286 14.8754 7.46429C14.8754 11.5357 11.4947 14.9286 7.43772 14.9286ZM7.43772 1.35714C4.05694 1.35714 1.35231 4.07143 1.35231 7.46429C1.35231 10.8571 4.05694 13.5714 7.43772 13.5714C10.8185 13.5714 13.5231 10.8571 13.5231 7.46429C13.5231 4.07143 10.8185 1.35714 7.43772 1.35714Z" fill="white"/>
<path d="M12.847 11.9429L18.7972 17.9143C19.0676 18.1857 19.0676 18.5929 18.7972 18.8643C18.6619 19 18.3915 19 18.2562 19C18.121 19 17.8505 19 17.7153 18.8643L11.7651 12.8929L12.847 11.9429Z" fill="white"/>
</svg>
